# xmcd
#
# Track frame offsets:
#	150
#	26402
#	40986
#	63738
#	74181
#	93042
#	109693
#	118474
#	136193
#	152207
#	167120
#	183933
#
# Disc length: 2714 seconds
#
# Revision: 1
# Processed by: cddbd v1.5.1PL2 Copyright (c) Steve Scherf et al.
# Submitted via: audiograbber 1.83.01
#
DISCID=ab0a980c
DTITLE=Traci Mnich - Traci Mnich At Last
DYEAR=2005
DGENRE=R and B
TTITLE0=A Nightingale Sang in Berkeley Square
TTITLE1=Mockingbird
TTITLE2=Tell Him
TTITLE3=Shoop Shoop Song
TTITLE4=Crazy
TTITLE5=Killing Me Softly
TTITLE6=Why Do Fools Fall In Love?
TTITLE7=Love Me Tender
TTITLE8=Rose Garden
TTITLE9=He Don't Know He's In Love
TTITLE10=Blowin' In The Wind
TTITLE11=At Last
EXTD=
EXTT0=
EXTT1=
EXTT2=
EXTT3=
EXTT4=
EXTT5=
EXTT6=
EXTT7=
EXTT8=
EXTT9=
EXTT10=
EXTT11=
PLAYORDER=
